<?xml version="1.0" encoding="UTF-8"?>
<svg width="256" height="256" viewBox="0 0 256 256" fill="none" xmlns="http://www.w3.org/2000/svg">
  <!-- Background grid -->
  <rect width="256" height="256" fill="#000B1E"/>
  <path d="M0 128 L256 128" stroke="#FF6AD5" stroke-width="1" stroke-opacity="0.3"/>
  <path d="M128 0 L128 256" stroke="#FF6AD5" stroke-width="1" stroke-opacity="0.3"/>
  
  <!-- Retro sun -->
  <circle cx="128" cy="128" r="60" fill="url(#sunGradient)"/>
  
  <!-- Palm tree silhouette -->
  <path d="M128 180 L128 220 M110 220 L146 220" stroke="#FF6AD5" stroke-width="8" stroke-linecap="round"/>
  <path d="M128 180 C128 180, 100 150, 90 130 C80 110, 85 90, 100 85 C115 80, 125 90, 128 100" stroke="#FF6AD5" stroke-width="8" stroke-linecap="round"/>
  <path d="M128 180 C128 180, 156 150, 166 130 C176 110, 171 90, 156 85 C141 80, 131 90, 128 100" stroke="#FF6AD5" stroke-width="8" stroke-linecap="round"/>
  
  <!-- Gradients -->
  <defs>
    <linearGradient id="sunGradient" x1="0%" y1="0%" x2="100%" y2="100%">
      <stop offset="0%" style="stop-color:#FF6AD5"/>
      <stop offset="100%" style="stop-color:#C774E8"/>
    </linearGradient>
  </defs>
  
  <!-- Animation for color cycling -->
  <style>
    @keyframes colorCycle {
      0% { stop-color: #FF6AD5; }
      50% { stop-color: #C774E8; }
      100% { stop-color: #FF6AD5; }
    }
    #sunGradient stop {
      animation: colorCycle 4s infinite;
    }
    circle {
      filter: drop-shadow(0 0 8px #FF6AD5);
    }
  </style>
</svg>
